<svg width="46" height="46" viewBox="0 0 46 46" fill="none" xmlns="http://www.w3.org/2000/svg">
<g id="Arturo-Wibawa-Akar-Whatsapp 1" clip-path="url(#clip0_4_44)">
<g id="Clip path group">
<mask id="mask0_4_44" style="mask-type:luminance" maskUnits="userSpaceOnUse" x="0" y="0" width="46" height="46">
<g id="clip0_615_275">
<path id="Vector" d="M45.4034 0H0.220215V45.1832H45.4034V0Z" fill="white"/>
</g>
</mask>
<g mask="url(#mask0_4_44)">
<g id="Group">
<path id="Vector_2" fill-rule="evenodd" clip-rule="evenodd" d="M33.0053 27.0764C32.4458 26.7963 29.6955 25.4432 29.1826 25.2561C28.67 25.0695 28.297 24.9763 27.9239 25.5362C27.551 26.0961 26.4788 27.3563 26.1525 27.7299C25.8263 28.103 25.4998 28.1499 24.9405 27.8697C24.381 27.5898 22.5784 26.999 20.4418 25.093C18.7786 23.6095 17.6558 21.7777 17.3296 21.2176C17.0031 20.6576 17.2946 20.3548 17.5747 20.0758C17.8265 19.8252 18.1343 19.4224 18.414 19.0957C18.6937 18.7691 18.7869 18.5356 18.9734 18.1625C19.1599 17.789 19.0667 17.4624 18.9267 17.1824C18.7869 16.9024 17.6681 14.1487 17.2019 13.0285C16.7477 11.9377 16.2865 12.0854 15.9432 12.0681C15.6172 12.052 15.2439 12.0485 14.871 12.0485C14.498 12.0485 13.8919 12.1885 13.379 12.7484C12.8664 13.3085 11.4211 14.6621 11.4211 17.4155C11.4211 20.1692 13.4256 22.8294 13.7054 23.2027C13.9852 23.5762 17.6502 29.2267 23.2623 31.6501C24.5969 32.2265 25.639 32.5707 26.4515 32.8284C27.7916 33.2542 29.0111 33.1942 29.9752 33.05C31.05 32.8896 33.2851 31.6967 33.7512 30.3902C34.2174 29.0831 34.2174 27.9631 34.0775 27.7299C33.9376 27.4964 33.5646 27.3563 33.0053 27.0764ZM22.7977 41.0137H22.7903C19.4509 41.0124 16.1758 40.1153 13.3186 38.4198L12.6391 38.0164L5.5959 39.864L7.47579 32.9969L7.03344 32.2928C5.17062 29.3299 4.1867 25.9056 4.18814 22.3892C4.19225 12.129 12.5404 3.78145 22.8052 3.78145C27.7757 3.78322 32.4481 5.72141 35.9618 9.23902C39.4752 12.7564 41.4088 17.4319 41.4069 22.4043C41.4028 32.6654 33.0548 41.0137 22.7977 41.0137ZM38.6357 6.56611C34.4086 2.33409 28.7871 0.00241549 22.7977 0C10.4568 0 0.41281 10.0433 0.407818 22.3879C0.406208 26.3341 1.43714 30.1856 3.39642 33.5811L0.220215 45.1832L12.0891 42.0697C15.3595 43.8535 19.0414 44.7937 22.7886 44.7948H22.7979C35.1374 44.7948 45.1822 34.7506 45.1873 22.4058C45.1895 16.4233 42.8628 10.7981 38.6357 6.56611Z" fill="white"/>
</g>
</g>
</g>
</g>
<defs>
<clipPath id="clip0_4_44">
<rect width="45.1832" height="45.1832" fill="white" transform="translate(0.220215)"/>
</clipPath>
</defs>
</svg>
