<svg width="46" height="46" viewBox="0 0 46 46" fill="none" xmlns="http://www.w3.org/2000/svg">
<g id="Pictogrammers-Material-Instagram 1">
<path id="Vector" d="M15.2669 4.19824H30.935C36.9039 4.19824 41.7535 9.04791 41.7535 15.0167V30.6849C41.7535 33.5542 40.6137 36.3059 38.5849 38.3347C36.556 40.3636 33.8043 41.5034 30.935 41.5034H15.2669C9.29804 41.5034 4.44836 36.6537 4.44836 30.6849V15.0167C4.44836 12.1475 5.58817 9.39577 7.61703 7.36691C9.64589 5.33805 12.3976 4.19824 15.2669 4.19824ZM14.8938 7.92876C13.1129 7.92876 11.4049 8.63622 10.1456 9.89552C8.88634 11.1548 8.17888 12.8628 8.17888 14.6437V31.058C8.17888 34.7698 11.1819 37.7729 14.8938 37.7729H31.3081C33.089 37.7729 34.797 37.0654 36.0563 35.8061C37.3156 34.5468 38.023 32.8389 38.023 31.058V14.6437C38.023 10.9318 35.0199 7.92876 31.3081 7.92876H14.8938ZM32.8936 10.7266C33.5119 10.7266 34.105 10.9723 34.5422 11.4095C34.9795 11.8468 35.2251 12.4398 35.2251 13.0582C35.2251 13.6766 34.9795 14.2696 34.5422 14.7069C34.105 15.1441 33.5119 15.3898 32.8936 15.3898C32.2752 15.3898 31.6821 15.1441 31.2449 14.7069C30.8076 14.2696 30.562 13.6766 30.562 13.0582C30.562 12.4398 30.8076 11.8468 31.2449 11.4095C31.6821 10.9723 32.2752 10.7266 32.8936 10.7266ZM23.1009 13.5245C25.5744 13.5245 27.9466 14.5071 29.6956 16.2561C31.4446 18.0052 32.4272 20.3773 32.4272 22.8508C32.4272 25.3243 31.4446 27.6965 29.6956 29.4455C27.9466 31.1945 25.5744 32.1771 23.1009 32.1771C20.6275 32.1771 18.2553 31.1945 16.5063 29.4455C14.7572 27.6965 13.7747 25.3243 13.7747 22.8508C13.7747 20.3773 14.7572 18.0052 16.5063 16.2561C18.2553 14.5071 20.6275 13.5245 23.1009 13.5245ZM23.1009 17.255C21.6169 17.255 20.1935 17.8446 19.1441 18.894C18.0947 19.9434 17.5052 21.3667 17.5052 22.8508C17.5052 24.3349 18.0947 25.7582 19.1441 26.8076C20.1935 27.857 21.6169 28.4466 23.1009 28.4466C24.585 28.4466 26.0083 27.857 27.0578 26.8076C28.1072 25.7582 28.6967 24.3349 28.6967 22.8508C28.6967 21.3667 28.1072 19.9434 27.0578 18.894C26.0083 17.8446 24.585 17.255 23.1009 17.255Z" fill="white"/>
</g>
</svg>
