<svg width="46" height="46" viewBox="0 0 46 46" fill="none" xmlns="http://www.w3.org/2000/svg">
<g id="Arturo-Wibawa-Akar-Tiktok 1">
<path id="Vector" d="M36.3751 10.4716C36.0891 10.3238 35.8109 10.1618 35.5411 9.98621C34.7568 9.4677 34.0378 8.85676 33.3994 8.16651C31.802 6.33889 31.2054 4.4848 30.9857 3.18667H30.9945C30.811 2.10914 30.8868 1.41199 30.8983 1.41199H23.6231V29.5438C23.6231 29.9214 23.6231 30.2948 23.6073 30.6638C23.6073 30.7095 23.6029 30.7519 23.6003 30.8014C23.6003 30.8217 23.6003 30.8428 23.5958 30.8641C23.5958 30.8693 23.5958 30.8746 23.5958 30.8799C23.5191 31.8892 23.1955 32.8644 22.6535 33.7193C22.1117 34.5742 21.3679 35.283 20.4877 35.783C19.5703 36.3049 18.5329 36.5786 17.4775 36.5773C14.0879 36.5773 11.3407 33.8132 11.3407 30.3998C11.3407 26.9864 14.0879 24.2225 17.4775 24.2225C18.1192 24.2218 18.7569 24.3229 19.367 24.5217L19.3757 17.114C17.5237 16.8748 15.6423 17.022 13.85 17.5463C12.0577 18.0706 10.3935 18.9608 8.96245 20.1604C7.7085 21.2498 6.65428 22.5498 5.84728 24.0019C5.54018 24.5313 4.38148 26.659 4.24116 30.1122C4.15291 32.0722 4.74153 34.1028 5.02215 34.942V34.9595C5.19865 35.4537 5.88257 37.1402 6.99715 38.562C7.89592 39.7023 8.95776 40.704 10.1485 41.535V41.5173L10.1661 41.535C13.6882 43.9282 17.5931 43.7712 17.5931 43.7712C18.2691 43.7439 20.5335 43.7712 23.1052 42.5526C25.9573 41.2014 27.5811 39.1885 27.5811 39.1885C28.6184 37.9857 29.4432 36.6149 30.0203 35.1352C30.6786 33.4047 30.8983 31.3291 30.8983 30.4996V15.575C30.9866 15.6279 32.1621 16.4054 32.1621 16.4054C32.1621 16.4054 33.8555 17.4909 36.4976 18.1977C38.3933 18.7007 40.9472 18.8066 40.9472 18.8066V11.5844C40.0524 11.6814 38.2353 11.399 36.3751 10.4716Z" fill="white"/>
</g>
</svg>
